<svg xmlns="http://www.w3.org/2000/svg" width="1258" height="102" fill="none">
  <path fill="#fff" d="m437.914 42-3.416-9.296h-19.152L411.93 42h-4.76l14.616-39.2h6.44L442.674 42zm-21.056-13.44h16.128L425.09 6.944h-.336zm30.118 26.32v-42h4.256v4.592h.336c.728-1.064 3.472-5.32 9.8-5.32 8.288 0 14.224 6.328 14.224 15.232 0 9.016-5.656 15.344-13.888 15.344-6.104 0-9.016-3.64-9.968-5.432h-.336V54.88zM461.2 38.696c5.712 0 9.856-4.648 9.856-11.312 0-6.832-4.368-11.2-9.968-11.2-6.048 0-9.856 5.096-9.856 11.2 0 7.168 4.48 11.312 9.968 11.312m20.405 16.184v-42h4.256v4.592h.336c.728-1.064 3.472-5.32 9.8-5.32 8.288 0 14.224 6.328 14.224 15.232 0 9.016-5.656 15.344-13.888 15.344-6.104 0-9.016-3.64-9.968-5.432h-.336V54.88zm14.224-16.184c5.712 0 9.856-4.648 9.856-11.312 0-6.832-4.368-11.2-9.968-11.2-6.048 0-9.856 5.096-9.856 11.2 0 7.168 4.48 11.312 9.968 11.312M513.138 42v-3.808h5.88V3.808h-5.88V0h10.304v38.192h5.88V42zm26.216-34.384c-1.848 0-3.192-1.4-3.192-3.248 0-1.792 1.344-3.192 3.192-3.192 1.904 0 3.248 1.4 3.248 3.192 0 1.848-1.344 3.248-3.248 3.248M537.17 42V16.632h-5.488V12.88h9.912V42zm25.801.728c-8.848 0-14.392-6.216-14.392-15.176 0-9.296 6.384-15.4 14.112-15.4 8.792 0 13.832 6.16 13.832 14.896v1.624h-23.408c.056 6.496 3.864 10.136 9.912 10.136 4.088 0 7.84-2.352 8.792-6.384l4.312 1.008c-1.624 5.432-6.44 9.296-13.16 9.296m-9.744-17.64h18.76c-.28-6.048-4.48-8.96-9.296-8.96-4.76 0-9.128 3.472-9.464 8.96m41.251 17.64c-8.288 0-14.224-6.328-14.224-15.232 0-8.96 5.656-15.344 13.888-15.344 6.104 0 9.072 3.92 9.968 5.432h.336V0h4.424v42h-4.256v-4.592h-.336c-.728 1.064-3.472 5.32-9.8 5.32m.28-3.976c6.048 0 9.856-5.152 9.856-11.2 0-7.224-4.48-11.368-9.968-11.368-5.712 0-9.856 4.704-9.856 11.368 0 6.776 4.312 11.2 9.968 11.2M630.929 42V2.8h12.432c8.008 0 12.768 4.592 12.768 11.424 0 5.824-3.192 10.416-9.296 11.536L657.361 42h-5.488l-9.8-15.848h-6.608V42zm4.536-19.88h7.896c4.592 0 8.064-2.688 8.064-7.84 0-4.144-2.8-7.448-8.344-7.448h-7.616zm39.497 20.608c-8.848 0-14.392-6.216-14.392-15.176 0-9.296 6.384-15.4 14.112-15.4 8.792 0 13.832 6.16 13.832 14.896v1.624h-23.408c.056 6.496 3.864 10.136 9.912 10.136 4.088 0 7.84-2.352 8.792-6.384l4.312 1.008c-1.624 5.432-6.44 9.296-13.16 9.296m-9.744-17.64h18.76c-.28-6.048-4.48-8.96-9.296-8.96-4.76 0-9.128 3.472-9.464 8.96m38.899 17.64c-6.552 0-10.64-3.584-11.312-8.792l4.032-1.008c.336 3.92 3.08 5.936 7.504 5.936 4.368 0 6.776-2.128 6.776-5.096 0-8.176-17.416-1.96-17.416-13.496 0-4.928 4.424-8.12 10.528-8.12 5.04 0 9.912 2.912 10.584 8.176l-3.864 1.12c-.392-3.416-3.192-5.488-7-5.488-3.64 0-5.992 1.792-5.992 4.312 0 7.392 17.472 1.232 17.472 13.272 0 5.488-4.536 9.184-11.312 9.184m30.313 0c-8.848 0-14.392-6.216-14.392-15.176 0-9.296 6.384-15.4 14.112-15.4 8.792 0 13.832 6.16 13.832 14.896v1.624h-23.408c.056 6.496 3.864 10.136 9.912 10.136 4.088 0 7.84-2.352 8.792-6.384l4.312 1.008c-1.624 5.432-6.44 9.296-13.16 9.296m-9.744-17.64h18.76c-.28-6.048-4.48-8.96-9.296-8.96-4.76 0-9.128 3.472-9.464 8.96m41.251 17.64c-8.344 0-14.224-6.328-14.224-15.232 0-8.96 5.6-15.344 13.888-15.344 6.048 0 9.072 3.92 9.912 5.432h.336V12.88h4.48v23.856c0 .896.56 1.344 1.456 1.344h1.344V42h-2.856c-2.408 0-4.2-1.792-4.256-4.312v-.28h-.336c-.728 1.176-3.416 5.32-9.744 5.32m.224-3.976c6.104 0 9.856-5.096 9.856-11.2 0-7.224-4.48-11.368-9.912-11.368-5.712 0-9.856 4.704-9.856 11.368 0 6.776 4.312 11.2 9.912 11.2M789.675 42V12.88h4.368v4.872h.336c.84-2.464 3.696-5.6 7.952-5.6h1.904v4.424h-2.632c-5.32 0-7.504 4.312-7.504 9.856V42zm31.591.728c-8.792 0-14.952-6.664-14.952-15.288s6.328-15.288 14.896-15.288c6.328 0 11.928 3.808 13.496 10.304l-4.368 1.008c-.784-4.368-4.48-7.28-9.016-7.28-6.216 0-10.416 4.928-10.416 11.256 0 6.552 4.424 11.256 10.528 11.256 4.536 0 8.232-2.912 9.016-7.28l4.368 1.008c-1.568 6.496-7.224 10.304-13.552 10.304M840.831 42V0h4.424v17.136h.336c1.232-2.632 4.48-4.984 9.016-4.984 6.776 0 10.976 5.096 10.976 11.536V42h-4.424V23.968c0-4.648-3.528-7.672-7.616-7.672-4.48 0-8.288 3.304-8.288 8.008V42zm63.872.728c-11.368 0-19.824-8.68-19.824-20.328 0-11.536 8.512-20.328 19.88-20.328 8.736 0 15.568 5.32 18.144 12.712h-5.04c-2.072-5.096-7.056-8.456-13.104-8.456-8.68 0-15.176 6.888-15.176 16.072 0 9.296 6.496 16.072 15.176 16.072 6.048 0 11.144-3.304 13.104-8.456h5.04c-2.464 7.56-9.464 12.712-18.2 12.712m36.872 0c-8.736 0-15.176-6.44-15.176-15.288 0-8.792 6.552-15.288 15.232-15.288 8.792 0 15.176 6.552 15.176 15.288s-6.496 15.288-15.232 15.288m0-4.032c6.272 0 10.696-4.76 10.696-11.256 0-6.44-4.424-11.256-10.696-11.256s-10.64 4.872-10.64 11.256c0 6.552 4.424 11.256 10.64 11.256M959.68 42v-3.808h5.88V3.808h-5.88V0h10.304v38.192h5.88V42zm19.917 0v-3.808h5.88V3.808h-5.88V0h10.304v38.192h5.88V42zm32.753.728c-8.34 0-14.222-6.328-14.222-15.232 0-8.96 5.602-15.344 13.892-15.344 6.04 0 9.07 3.92 9.91 5.432h.33V12.88h4.48v23.856c0 .896.56 1.344 1.46 1.344h1.34V42h-2.85c-2.41 0-4.2-1.792-4.26-4.312v-.28h-.33c-.73 1.176-3.42 5.32-9.75 5.32m.23-3.976c6.1 0 9.85-5.096 9.85-11.2 0-7.224-4.48-11.368-9.91-11.368-5.71 0-9.86 4.704-9.86 11.368 0 6.776 4.32 11.2 9.92 11.2m37.9 3.976c-6.33 0-9.07-4.256-9.8-5.32h-.33V42h-4.26V0h4.42v17.584h.34c.9-1.512 3.86-5.432 9.97-5.432 8.23 0 13.89 6.384 13.89 15.344 0 8.904-5.94 15.232-14.23 15.232m-.28-3.976c5.6 0 9.97-4.424 9.97-11.2 0-6.664-4.14-11.368-9.86-11.368-5.48 0-9.96 4.144-9.96 11.368 0 6.104 3.8 11.2 9.85 11.2m33.45 3.976c-8.73 0-15.17-6.44-15.17-15.288 0-8.792 6.55-15.288 15.23-15.288 8.79 0 15.18 6.552 15.18 15.288s-6.5 15.288-15.24 15.288m0-4.032c6.28 0 10.7-4.76 10.7-11.256 0-6.44-4.42-11.256-10.7-11.256-6.27 0-10.64 4.872-10.64 11.256 0 6.552 4.43 11.256 10.64 11.256M1104.86 42V12.88h4.36v4.872h.34c.84-2.464 3.7-5.6 7.95-5.6h1.91v4.424h-2.64c-5.32 0-7.5 4.312-7.5 9.856V42zm30.86.728c-8.35 0-14.23-6.328-14.23-15.232 0-8.96 5.6-15.344 13.89-15.344 6.05 0 9.07 3.92 9.91 5.432h.34V12.88h4.48v23.856c0 .896.56 1.344 1.46 1.344h1.34V42h-2.86c-2.4 0-4.2-1.792-4.25-4.312v-.28h-.34c-.73 1.176-3.41 5.32-9.74 5.32m.22-3.976c6.11 0 9.86-5.096 9.86-11.2 0-7.224-4.48-11.368-9.91-11.368-5.72 0-9.86 4.704-9.86 11.368 0 6.776 4.31 11.2 9.91 11.2M1170.99 42c-5.32 0-8.85-2.408-8.85-8.288v-17.08h-5.48V12.88h5.76V4.424h4.15v8.456h8.96v3.752h-8.96v17.024c0 3.136 1.29 4.48 4.37 4.48h4.2V42zm16.78-34.384c-1.85 0-3.19-1.4-3.19-3.248 0-1.792 1.34-3.192 3.19-3.192 1.91 0 3.25 1.4 3.25 3.192 0 1.848-1.34 3.248-3.25 3.248M1185.59 42V16.632h-5.49V12.88h9.91V42zm26.58.728c-8.73 0-15.17-6.44-15.17-15.288 0-8.792 6.55-15.288 15.23-15.288 8.79 0 15.17 6.552 15.17 15.288s-6.49 15.288-15.23 15.288m0-4.032c6.27 0 10.7-4.76 10.7-11.256 0-6.44-4.43-11.256-10.7-11.256s-10.64 4.872-10.64 11.256c0 6.552 4.43 11.256 10.64 11.256m21.2 3.304V12.88h4.43v4.256h.33c1.24-2.632 4.37-4.984 8.91-4.984 6.77 0 10.86 5.096 10.86 11.536V42h-4.42V23.968c0-4.648-3.42-7.672-7.51-7.672-4.59 0-8.17 3.528-8.17 8.344V42zM422.906 99.728c-8.624 0-14.896-5.544-14.896-14.112h8.344c0 3.808 3.08 6.048 6.832 6.048 3.976 0 5.936-1.736 5.936-4.088 0-8.456-19.936-1.12-19.936-16.968 0-6.16 5.096-11.536 13.608-11.536 6.384 0 13.888 3.472 13.888 13.104h-8.4c0-3.08-2.128-5.376-5.712-5.376s-5.04 1.96-5.04 3.808c0 7.336 20.16.84 20.16 17.024 0 6.72-5.6 12.096-14.784 12.096m32.57 0c-9.24 0-15.736-6.72-15.736-15.456 0-8.792 6.552-15.512 15.736-15.512 9.24 0 15.68 6.776 15.68 15.512s-6.496 15.456-15.68 15.456m0-7.784c4.368 0 7.392-3.304 7.392-7.672 0-4.424-3.024-7.728-7.392-7.728s-7.448 3.304-7.448 7.728c0 4.368 3.08 7.672 7.448 7.672m28.944 7.784c-6.216 0-10.36-4.648-10.36-10.416V69.488h8.176V86.68c0 2.968 2.016 5.152 4.872 5.152 2.968 0 5.04-2.24 5.04-5.208V69.488h8.176V99h-8.176v-2.688h-.56c-1.344 1.904-3.752 3.416-7.168 3.416M517.087 99c-5.936 0-9.24-2.688-9.24-9.128v-13.16h-4.872v-7.224h5.432v-8.064h7.616v8.064h7.84v7.224h-7.84v13.104c0 1.288.504 1.848 1.848 1.848h5.656V99zm10.548 0V57h8.176v15.176h.56c1.344-1.792 3.696-3.416 7.224-3.416 6.216 0 10.472 4.648 10.472 10.416V99h-8.176V81.808c0-2.968-1.96-5.152-4.928-5.152s-5.152 2.24-5.152 5.152V99zm47.602 0-7.504-39.2h9.072l4.816 30.8h.616l4.648-30.8h12.432l4.648 30.8h.616l4.816-30.8h9.072L610.797 99h-12.6l-4.76-30.8h-.672l-4.76 30.8zm58.086.728c-9.016 0-15.288-6.552-15.288-15.456 0-9.24 6.832-15.512 15.064-15.512 9.072 0 14.728 6.72 14.728 15.456v2.072h-21.392c.056 3.864 2.912 6.216 6.776 6.216 2.688 0 5.264-1.064 6.384-3.528l7.28 1.68c-2.128 6.608-7.84 9.072-13.552 9.072m-6.832-18.872h13.104c-.392-2.968-3.024-5.32-6.496-5.32-3.808 0-6.216 2.688-6.608 5.32m35.759 18.872c-6.272 0-11.536-3.024-12.376-9.576l7.168-1.288c.336 2.744 2.8 3.976 5.6 3.976 2.464 0 3.697-.952 3.697-2.352 0-4.872-15.457-.784-15.457-12.544 0-5.096 4.704-9.184 11.256-9.184 6.16 0 10.472 2.8 11.76 8.12l-7.056 1.904c-.616-2.072-2.408-3.304-4.592-3.304-1.96 0-3.304.84-3.304 2.128 0 4.592 15.624.784 15.624 12.096 0 5.936-4.648 10.024-12.32 10.024M690.46 99c-5.936 0-9.24-2.688-9.24-9.128v-13.16h-4.872v-7.224h5.432v-8.064h7.616v8.064h7.84v7.224h-7.84v13.104c0 1.288.504 1.848 1.848 1.848h5.656V99z"/>
  <path fill="#fc5d5d" d="M378.6 1h-9v100h9z"/>
  <path fill="#fff" d="M96.96 81.57h13.43V20.43H96.96V1h48.43v19.43h-13.71v61.14h13.71V101H96.96zM160.49 1h21.29v39.29h38V1h21.14v100h-21.14V60.29h-38V101h-21.29zm97.4 0h40.93c21 0 35.71 12.57 35.71 31.29 0 13.43-6.29 23.86-17.86 29.29l21.86 39.43h-24.29l-18.43-36.14h-16.64v36.14h-21.29v-100zm41.21 44.57c7.71 0 13.29-4.57 13.29-12.86 0-6.43-4.43-11.86-14-11.86h-19.21v24.71h19.93zM0 101V1h21.15l39.39 61.17V1h21.33v100H63.4L21.15 37.94V101z"/>
</svg>
